<?xml version="1.0" encoding="utf-8" standalone="no"?>
<!DOCTYPE svg PUBLIC "-//W3C//DTD SVG 1.1//EN"
  "http://www.w3.org/Graphics/SVG/1.1/DTD/svg11.dtd">
<!-- Created with matplotlib (http://matplotlib.org/) -->
<svg height="391pt" version="1.1" viewBox="0 0 509 391" width="509pt" xmlns="http://www.w3.org/2000/svg" xmlns:xlink="http://www.w3.org/1999/xlink">
 <defs>
  <style type="text/css">
*{stroke-linecap:butt;stroke-linejoin:round;}
  </style>
 </defs>
 <g id="figure_1">
  <g id="patch_1">
   <path d="
M0 391.674
L509.509 391.674
L509.509 0
L0 0
L0 391.674" style="fill:none;"/>
  </g>
  <g id="axes_1">
   <g id="patch_2">
    <path d="
M47.0641 356.118
L493.464 356.118
L493.464 21.3181
L47.0641 21.3181
z
" style="fill:#ffffff;"/>
   </g>
   <g id="line2d_1">
    <path clip-path="url(#p81a6b23c2c)" d="
M59.5633 152.061
L61.7437 132.851
L63.9241 122.072
L66.1045 117.645
L68.2849 117.492
L70.4653 119.537
L72.6457 121.943
L74.8261 123.629
L77.0065 123.659
L79.1869 121.096
L81.3673 115.006
L83.5477 105.232
L87.9085 81.7835
L90.0889 72.0982
L92.2694 66.4318
L94.4498 66.7119
L96.6302 72.7877
L98.8106 82.0794
L100.991 91.8696
L103.171 99.4408
L105.352 102.191
L107.532 99.8671
L109.713 94.4062
L111.893 87.8294
L114.073 82.1574
L116.254 79.2954
L118.434 79.5001
L120.615 81.803
L124.975 88.7123
L127.156 91.3802
L129.336 92.8572
L131.517 93.1377
L133.697 92.2206
L135.877 90.105
L138.058 86.7898
L140.238 82.3291
L142.419 77.0206
L148.96 59.6563
L151.14 54.5226
L153.321 49.9208
L155.501 45.794
L157.682 42.0851
L159.862 38.7373
L162.042 35.7837
L164.223 33.4953
L166.403 32.182
L168.584 32.1538
L170.764 33.7183
L172.944 36.8271
L177.305 44.4405
L179.486 47.189
L181.666 48.0689
L183.846 46.7536
L186.027 43.8063
L188.207 39.8729
L190.388 35.5989
L192.568 31.6303
L194.748 28.5881
L196.929 26.6924
L199.109 25.8388
L201.29 25.913
L203.47 26.8011
L205.65 28.3863
L207.831 30.5182
L210.011 33.0253
L216.552 41.0824
L218.733 43.4296
L220.913 45.4184
L223.094 46.9491
L225.274 47.922
L227.455 48.2888
L231.815 48.4947
L233.996 49.1819
L236.176 50.8241
L238.357 53.7098
L240.537 57.4472
L242.717 61.433
L244.898 65.0636
L247.078 67.7354
L249.259 68.8465
L251.439 68.1492
L253.619 66.2011
L257.98 61.229
L260.161 59.539
L262.341 58.9104
L264.521 59.0145
L268.882 59.8413
L271.063 59.7801
L273.243 59.1614
L277.604 57.4146
L279.784 56.913
L281.965 57.0676
L284.145 57.9141
L286.325 59.184
L288.506 60.5927
L290.686 61.8556
L292.867 62.6879
L295.047 62.8389
L297.228 62.3833
L303.769 59.9524
L305.949 59.6251
L308.13 59.7552
L310.31 60.3199
L312.49 61.296
L314.671 62.6606
L316.851 64.3732
L323.392 70.1207
L325.573 71.6815
L327.753 72.8262
L329.934 73.6012
L332.114 74.0983
L336.475 74.6278
L338.655 74.8002
L340.836 74.8297
L343.016 74.5892
L345.196 73.9518
L347.377 72.7903
L349.557 70.9815
L353.918 66.1724
L356.098 64.0983
L358.279 62.8818
L360.459 62.9861
L362.64 64.3531
L364.82 66.2821
L367.001 68.0328
L369.181 68.8648
L371.361 68.0684
L373.542 65.6205
L375.722 62.1732
L377.903 58.4072
L380.083 55.0033
L382.263 52.6073
L384.444 51.3265
L386.624 50.8459
L388.805 50.8388
L390.985 50.9788
L393.165 50.9394
L395.346 50.4567
L401.887 48.1274
L404.067 47.9402
L406.248 48.4235
L408.428 49.4669
L410.609 50.8694
L414.969 53.9478
L417.15 55.2473
L419.33 56.2469
L421.511 56.8862
L423.691 57.1046
L425.871 56.8416
L428.052 56.0837
L430.232 54.9487
L434.593 52.111
L436.774 50.69
L438.954 49.4365
L441.134 48.4321
L443.315 47.7528
L445.495 47.4745
L447.676 47.6735
L449.856 48.4197
L452.036 49.6318
L456.397 52.4676
L458.578 53.5865
L460.758 54.1795
L462.938 54.1785
L465.119 53.6648
L467.299 52.7244
L469.48 51.4434
L471.66 49.9067
L476.021 46.3401
L482.562 40.671
L486.923 37.2525
L489.103 35.7232
L491.284 34.3381
L493.464 33.1158
L493.464 33.1158" style="fill:none;stroke:#0000ff;stroke-linecap:square;"/>
   </g>
   <g id="line2d_2">
    <path clip-path="url(#p81a6b23c2c)" d="
M77.4193 140.181
L79.5099 109.301
L81.6006 90.776
L83.6913 82.2474
L85.782 81.3562
L87.8726 85.7436
L89.9633 93.1524
L94.1447 110.595
L96.2354 117.731
L98.326 121.879
L100.417 121.789
L102.507 117.944
L104.598 111.717
L108.779 97.6302
L110.87 92.4588
L112.961 89.3272
L115.051 87.907
L117.142 87.8552
L119.233 88.8286
L121.323 90.4964
L123.414 92.8079
L125.505 95.9909
L127.596 100.285
L129.686 105.931
L131.777 113.15
L133.868 121.412
L135.958 129.143
L138.049 134.695
L140.14 136.421
L142.23 132.683
L144.321 123.195
L146.412 110.272
L148.502 96.5258
L150.593 84.5655
L152.684 77.0002
L154.774 75.3675
L156.865 78.2767
L158.956 83.8416
L161.046 90.1757
L163.137 95.393
L165.228 98.0442
L167.318 98.4066
L169.409 97.1836
L171.5 95.0784
L173.59 92.7944
L175.681 90.9534
L177.772 89.7079
L179.862 89.0432
L181.953 88.9443
L184.044 89.3963
L186.134 90.3771
L188.225 91.8056
L190.316 93.5704
L194.497 97.6634
L196.588 99.7541
L198.679 101.514
L200.769 102.489
L202.86 102.221
L204.951 100.254
L207.041 96.1809
L209.132 90.7209
L211.223 85.7025
L213.313 83.0004
L215.404 84.4804
L217.495 90.7534
L219.585 99.898
L221.676 109.688
L223.767 117.897
L225.857 122.299
L227.948 121.553
L230.039 116.854
L232.129 109.85
L234.22 102.189
L236.311 95.5187
L238.401 91.1369
L240.492 88.8803
L242.583 88.2065
L244.673 88.5731
L248.855 90.4001
L250.945 91.9182
L253.036 94.773
L255.127 99.746
L257.218 107.618
L259.308 119.008
L261.399 133.048
L265.58 162.451
L267.671 174.489
L269.762 182.668
L271.852 187.368
L276.034 193.545
L278.124 198.679
L280.215 207.515
L284.396 230.868
L286.487 238.777
L288.578 239.691
L290.668 230.319
L292.759 210.766
L296.94 161.273
L299.031 141.968
L301.122 133.359
L303.212 137.85
L305.303 152.071
L307.394 171.97
L309.484 193.496
L311.575 212.597
L313.666 226.433
L315.756 235.603
L317.847 241.311
L319.938 244.761
L324.119 249.404
L326.21 251.201
L328.301 251.93
L330.391 250.975
L332.482 247.72
L334.573 241.771
L338.754 226.018
L340.845 219.07
L342.935 214.643
L345.026 213.919
L347.117 215.881
L349.207 218.358
L351.298 219.168
L353.389 216.129
L355.479 207.205
L357.57 192.41
L359.661 173.258
L361.751 151.301
L365.933 105.221
L368.023 85.4321
L370.114 72.6173
L372.205 70.7222
L374.295 83.6928
L376.386 115.349
L378.477 163.598
L380.567 218.014
L382.658 267.542
L384.749 301.129
L386.84 307.774
L388.93 283.433
L391.021 237.773
L395.202 127.575
L397.293 85.5705
L399.384 63.3282
L401.474 56.9523
L403.565 60.6051
L405.656 68.4492
L407.746 74.6471
L409.837 75.0047
L411.928 71.9872
L414.018 69.7463
L416.109 72.4335
L418.2 84.2004
L420.29 107.958
L424.472 171.095
L426.562 196.272
L428.653 207.717
L430.744 199.381
L432.834 174.485
L437.016 107.191
L439.106 80.9475
L441.197 69.8967
L443.288 74.5989
L445.378 90.5296
L447.469 113.05
L449.56 137.521
L451.651 159.413
L453.741 176.74
L455.832 190.071
L457.923 200.087
L460.013 207.472
L462.104 212.896
L464.195 216.601
L466.285 218.219
L468.376 217.341
L470.467 213.558
L472.557 206.462
L474.648 196.015
L476.739 182.897
L478.829 167.872
L485.101 119.119
L487.192 104.892
L489.283 93.8199
L491.373 87.2532
L493.464 86.5421
L493.464 86.5421" style="fill:none;stroke:#008000;stroke-dasharray:6.000000,6.000000;stroke-dashoffset:0.0;"/>
   </g>
   <g id="patch_3">
    <path d="
M47.0641 21.3181
L493.464 21.3181" style="fill:none;stroke:#000000;stroke-linecap:square;stroke-linejoin:miter;"/>
   </g>
   <g id="patch_4">
    <path d="
M493.464 356.118
L493.464 21.3181" style="fill:none;stroke:#000000;stroke-linecap:square;stroke-linejoin:miter;"/>
   </g>
   <g id="patch_5">
    <path d="
M47.0641 356.118
L493.464 356.118" style="fill:none;stroke:#000000;stroke-linecap:square;stroke-linejoin:miter;"/>
   </g>
   <g id="patch_6">
    <path d="
M47.0641 356.118
L47.0641 21.3181" style="fill:none;stroke:#000000;stroke-linecap:square;stroke-linejoin:miter;"/>
   </g>
   <g id="matplotlib.axis_1">
    <g id="xtick_1">
     <g id="line2d_3">
      <defs>
       <path d="
M0 0
L0 -4" id="m93b0483c22" style="stroke:#000000;stroke-width:0.5;"/>
      </defs>
      <g>
       <use style="stroke:#000000;stroke-width:0.5;" x="47.0640625" xlink:href="#m93b0483c22" y="356.118125"/>
      </g>
     </g>
     <g id="line2d_4">
      <defs>
       <path d="
M0 0
L0 4" id="m741efc42ff" style="stroke:#000000;stroke-width:0.5;"/>
      </defs>
      <g>
       <use style="stroke:#000000;stroke-width:0.5;" x="47.0640625" xlink:href="#m741efc42ff" y="21.318125"/>
      </g>
     </g>
     <g id="text_1">
      <!-- 0 -->
      <defs>
       <path d="
M31.7812 66.4062
Q24.1719 66.4062 20.3281 58.9062
Q16.5 51.4219 16.5 36.375
Q16.5 21.3906 20.3281 13.8906
Q24.1719 6.39062 31.7812 6.39062
Q39.4531 6.39062 43.2812 13.8906
Q47.125 21.3906 47.125 36.375
Q47.125 51.4219 43.2812 58.9062
Q39.4531 66.4062 31.7812 66.4062
M31.7812 74.2188
Q44.0469 74.2188 50.5156 64.5156
Q56.9844 54.8281 56.9844 36.375
Q56.9844 17.9688 50.5156 8.26562
Q44.0469 -1.42188 31.7812 -1.42188
Q19.5312 -1.42188 13.0625 8.26562
Q6.59375 17.9688 6.59375 36.375
Q6.59375 54.8281 13.0625 64.5156
Q19.5312 74.2188 31.7812 74.2188" id="BitstreamVeraSans-Roman-30"/>
      </defs>
      <g transform="translate(44.54453125 367.7165625)scale(0.1 -0.1)">
       <use xlink:href="#BitstreamVeraSans-Roman-30"/>
      </g>
     </g>
    </g>
    <g id="xtick_2">
     <g id="line2d_5">
      <g>
       <use style="stroke:#000000;stroke-width:0.5;" x="136.3440625" xlink:href="#m93b0483c22" y="356.118125"/>
      </g>
     </g>
     <g id="line2d_6">
      <g>
       <use style="stroke:#000000;stroke-width:0.5;" x="136.3440625" xlink:href="#m741efc42ff" y="21.318125"/>
      </g>
     </g>
     <g id="text_2">
      <!-- 50 -->
      <defs>
       <path d="
M10.7969 72.9062
L49.5156 72.9062
L49.5156 64.5938
L19.8281 64.5938
L19.8281 46.7344
Q21.9688 47.4688 24.1094 47.8281
Q26.2656 48.1875 28.4219 48.1875
Q40.625 48.1875 47.75 41.5
Q54.8906 34.8125 54.8906 23.3906
Q54.8906 11.625 47.5625 5.09375
Q40.2344 -1.42188 26.9062 -1.42188
Q22.3125 -1.42188 17.5469 -0.640625
Q12.7969 0.140625 7.71875 1.70312
L7.71875 11.625
Q12.1094 9.23438 16.7969 8.0625
Q21.4844 6.89062 26.7031 6.89062
Q35.1562 6.89062 40.0781 11.3281
Q45.0156 15.7656 45.0156 23.3906
Q45.0156 31 40.0781 35.4375
Q35.1562 39.8906 26.7031 39.8906
Q22.75 39.8906 18.8125 39.0156
Q14.8906 38.1406 10.7969 36.2812
z
" id="BitstreamVeraSans-Roman-35"/>
      </defs>
      <g transform="translate(130.69953125 367.7165625)scale(0.1 -0.1)">
       <use xlink:href="#BitstreamVeraSans-Roman-35"/>
       <use x="63.623046875" xlink:href="#BitstreamVeraSans-Roman-30"/>
      </g>
     </g>
    </g>
    <g id="xtick_3">
     <g id="line2d_7">
      <g>
       <use style="stroke:#000000;stroke-width:0.5;" x="225.6240625" xlink:href="#m93b0483c22" y="356.118125"/>
      </g>
     </g>
     <g id="line2d_8">
      <g>
       <use style="stroke:#000000;stroke-width:0.5;" x="225.6240625" xlink:href="#m741efc42ff" y="21.318125"/>
      </g>
     </g>
     <g id="text_3">
      <!-- 100 -->
      <defs>
       <path d="
M12.4062 8.29688
L28.5156 8.29688
L28.5156 63.9219
L10.9844 60.4062
L10.9844 69.3906
L28.4219 72.9062
L38.2812 72.9062
L38.2812 8.29688
L54.3906 8.29688
L54.3906 0
L12.4062 0
z
" id="BitstreamVeraSans-Roman-31"/>
      </defs>
      <g transform="translate(216.9615625 367.7165625)scale(0.1 -0.1)">
       <use xlink:href="#BitstreamVeraSans-Roman-31"/>
       <use x="63.623046875" xlink:href="#BitstreamVeraSans-Roman-30"/>
       <use x="127.24609375" xlink:href="#BitstreamVeraSans-Roman-30"/>
      </g>
     </g>
    </g>
    <g id="xtick_4">
     <g id="line2d_9">
      <g>
       <use style="stroke:#000000;stroke-width:0.5;" x="314.9040625" xlink:href="#m93b0483c22" y="356.118125"/>
      </g>
     </g>
     <g id="line2d_10">
      <g>
       <use style="stroke:#000000;stroke-width:0.5;" x="314.9040625" xlink:href="#m741efc42ff" y="21.318125"/>
      </g>
     </g>
     <g id="text_4">
      <!-- 150 -->
      <g transform="translate(306.2415625 367.7165625)scale(0.1 -0.1)">
       <use xlink:href="#BitstreamVeraSans-Roman-31"/>
       <use x="63.623046875" xlink:href="#BitstreamVeraSans-Roman-35"/>
       <use x="127.24609375" xlink:href="#BitstreamVeraSans-Roman-30"/>
      </g>
     </g>
    </g>
    <g id="xtick_5">
     <g id="line2d_11">
      <g>
       <use style="stroke:#000000;stroke-width:0.5;" x="404.1840625" xlink:href="#m93b0483c22" y="356.118125"/>
      </g>
     </g>
     <g id="line2d_12">
      <g>
       <use style="stroke:#000000;stroke-width:0.5;" x="404.1840625" xlink:href="#m741efc42ff" y="21.318125"/>
      </g>
     </g>
     <g id="text_5">
      <!-- 200 -->
      <defs>
       <path d="
M19.1875 8.29688
L53.6094 8.29688
L53.6094 0
L7.32812 0
L7.32812 8.29688
Q12.9375 14.1094 22.625 23.8906
Q32.3281 33.6875 34.8125 36.5312
Q39.5469 41.8438 41.4219 45.5312
Q43.3125 49.2188 43.3125 52.7812
Q43.3125 58.5938 39.2344 62.25
Q35.1562 65.9219 28.6094 65.9219
Q23.9688 65.9219 18.8125 64.3125
Q13.6719 62.7031 7.8125 59.4219
L7.8125 69.3906
Q13.7656 71.7812 18.9375 73
Q24.125 74.2188 28.4219 74.2188
Q39.75 74.2188 46.4844 68.5469
Q53.2188 62.8906 53.2188 53.4219
Q53.2188 48.9219 51.5312 44.8906
Q49.8594 40.875 45.4062 35.4062
Q44.1875 33.9844 37.6406 27.2188
Q31.1094 20.4531 19.1875 8.29688" id="BitstreamVeraSans-Roman-32"/>
      </defs>
      <g transform="translate(395.33875 367.7165625)scale(0.1 -0.1)">
       <use xlink:href="#BitstreamVeraSans-Roman-32"/>
       <use x="63.623046875" xlink:href="#BitstreamVeraSans-Roman-30"/>
       <use x="127.24609375" xlink:href="#BitstreamVeraSans-Roman-30"/>
      </g>
     </g>
    </g>
    <g id="xtick_6">
     <g id="line2d_13">
      <g>
       <use style="stroke:#000000;stroke-width:0.5;" x="493.4640625" xlink:href="#m93b0483c22" y="356.118125"/>
      </g>
     </g>
     <g id="line2d_14">
      <g>
       <use style="stroke:#000000;stroke-width:0.5;" x="493.4640625" xlink:href="#m741efc42ff" y="21.318125"/>
      </g>
     </g>
     <g id="text_6">
      <!-- 250 -->
      <g transform="translate(484.61875 367.7165625)scale(0.1 -0.1)">
       <use xlink:href="#BitstreamVeraSans-Roman-32"/>
       <use x="63.623046875" xlink:href="#BitstreamVeraSans-Roman-35"/>
       <use x="127.24609375" xlink:href="#BitstreamVeraSans-Roman-30"/>
      </g>
     </g>
    </g>
    <g id="text_7">
     <!-- Training set size -->
     <defs>
      <path id="BitstreamVeraSans-Roman-20"/>
      <path d="
M54.8906 33.0156
L54.8906 0
L45.9062 0
L45.9062 32.7188
Q45.9062 40.4844 42.875 44.3281
Q39.8438 48.1875 33.7969 48.1875
Q26.5156 48.1875 22.3125 43.5469
Q18.1094 38.9219 18.1094 30.9062
L18.1094 0
L9.07812 0
L9.07812 54.6875
L18.1094 54.6875
L18.1094 46.1875
Q21.3438 51.125 25.7031 53.5625
Q30.0781 56 35.7969 56
Q45.2188 56 50.0469 50.1719
Q54.8906 44.3438 54.8906 33.0156" id="BitstreamVeraSans-Roman-6e"/>
      <path d="
M34.2812 27.4844
Q23.3906 27.4844 19.1875 25
Q14.9844 22.5156 14.9844 16.5
Q14.9844 11.7188 18.1406 8.90625
Q21.2969 6.10938 26.7031 6.10938
Q34.1875 6.10938 38.7031 11.4062
Q43.2188 16.7031 43.2188 25.4844
L43.2188 27.4844
z

M52.2031 31.2031
L52.2031 0
L43.2188 0
L43.2188 8.29688
Q40.1406 3.32812 35.5469 0.953125
Q30.9531 -1.42188 24.3125 -1.42188
Q15.9219 -1.42188 10.9531 3.29688
Q6 8.01562 6 15.9219
Q6 25.1406 12.1719 29.8281
Q18.3594 34.5156 30.6094 34.5156
L43.2188 34.5156
L43.2188 35.4062
Q43.2188 41.6094 39.1406 45
Q35.0625 48.3906 27.6875 48.3906
Q23 48.3906 18.5469 47.2656
Q14.1094 46.1406 10.0156 43.8906
L10.0156 52.2031
Q14.9375 54.1094 19.5781 55.0469
Q24.2188 56 28.6094 56
Q40.4844 56 46.3438 49.8438
Q52.2031 43.7031 52.2031 31.2031" id="BitstreamVeraSans-Roman-61"/>
      <path d="
M18.3125 70.2188
L18.3125 54.6875
L36.8125 54.6875
L36.8125 47.7031
L18.3125 47.7031
L18.3125 18.0156
Q18.3125 11.3281 20.1406 9.42188
Q21.9688 7.51562 27.5938 7.51562
L36.8125 7.51562
L36.8125 0
L27.5938 0
Q17.1875 0 13.2344 3.875
Q9.28125 7.76562 9.28125 18.0156
L9.28125 47.7031
L2.6875 47.7031
L2.6875 54.6875
L9.28125 54.6875
L9.28125 70.2188
z
" id="BitstreamVeraSans-Roman-74"/>
      <path d="
M5.51562 54.6875
L48.1875 54.6875
L48.1875 46.4844
L14.4062 7.17188
L48.1875 7.17188
L48.1875 0
L4.29688 0
L4.29688 8.20312
L38.0938 47.5156
L5.51562 47.5156
z
" id="BitstreamVeraSans-Roman-7a"/>
      <path d="
M-0.296875 72.9062
L61.375 72.9062
L61.375 64.5938
L35.5 64.5938
L35.5 0
L25.5938 0
L25.5938 64.5938
L-0.296875 64.5938
z
" id="BitstreamVeraSans-Roman-54"/>
      <path d="
M56.2031 29.5938
L56.2031 25.2031
L14.8906 25.2031
Q15.4844 15.9219 20.4844 11.0625
Q25.4844 6.20312 34.4219 6.20312
Q39.5938 6.20312 44.4531 7.46875
Q49.3125 8.73438 54.1094 11.2812
L54.1094 2.78125
Q49.2656 0.734375 44.1875 -0.34375
Q39.1094 -1.42188 33.8906 -1.42188
Q20.7969 -1.42188 13.1562 6.1875
Q5.51562 13.8125 5.51562 26.8125
Q5.51562 40.2344 12.7656 48.1094
Q20.0156 56 32.3281 56
Q43.3594 56 49.7812 48.8906
Q56.2031 41.7969 56.2031 29.5938
M47.2188 32.2344
Q47.125 39.5938 43.0938 43.9844
Q39.0625 48.3906 32.4219 48.3906
Q24.9062 48.3906 20.3906 44.1406
Q15.875 39.8906 15.1875 32.1719
z
" id="BitstreamVeraSans-Roman-65"/>
      <path d="
M9.42188 54.6875
L18.4062 54.6875
L18.4062 0
L9.42188 0
z

M9.42188 75.9844
L18.4062 75.9844
L18.4062 64.5938
L9.42188 64.5938
z
" id="BitstreamVeraSans-Roman-69"/>
      <path d="
M45.4062 27.9844
Q45.4062 37.75 41.375 43.1094
Q37.3594 48.4844 30.0781 48.4844
Q22.8594 48.4844 18.8281 43.1094
Q14.7969 37.75 14.7969 27.9844
Q14.7969 18.2656 18.8281 12.8906
Q22.8594 7.51562 30.0781 7.51562
Q37.3594 7.51562 41.375 12.8906
Q45.4062 18.2656 45.4062 27.9844
M54.3906 6.78125
Q54.3906 -7.17188 48.1875 -13.9844
Q42 -20.7969 29.2031 -20.7969
Q24.4688 -20.7969 20.2656 -20.0938
Q16.0625 -19.3906 12.1094 -17.9219
L12.1094 -9.1875
Q16.0625 -11.3281 19.9219 -12.3438
Q23.7812 -13.375 27.7812 -13.375
Q36.625 -13.375 41.0156 -8.76562
Q45.4062 -4.15625 45.4062 5.17188
L45.4062 9.625
Q42.625 4.78125 38.2812 2.39062
Q33.9375 0 27.875 0
Q17.8281 0 11.6719 7.65625
Q5.51562 15.3281 5.51562 27.9844
Q5.51562 40.6719 11.6719 48.3281
Q17.8281 56 27.875 56
Q33.9375 56 38.2812 53.6094
Q42.625 51.2188 45.4062 46.3906
L45.4062 54.6875
L54.3906 54.6875
z
" id="BitstreamVeraSans-Roman-67"/>
      <path d="
M41.1094 46.2969
Q39.5938 47.1719 37.8125 47.5781
Q36.0312 48 33.8906 48
Q26.2656 48 22.1875 43.0469
Q18.1094 38.0938 18.1094 28.8125
L18.1094 0
L9.07812 0
L9.07812 54.6875
L18.1094 54.6875
L18.1094 46.1875
Q20.9531 51.1719 25.4844 53.5781
Q30.0312 56 36.5312 56
Q37.4531 56 38.5781 55.875
Q39.7031 55.7656 41.0625 55.5156
z
" id="BitstreamVeraSans-Roman-72"/>
      <path d="
M44.2812 53.0781
L44.2812 44.5781
Q40.4844 46.5312 36.375 47.5
Q32.2812 48.4844 27.875 48.4844
Q21.1875 48.4844 17.8438 46.4375
Q14.5 44.3906 14.5 40.2812
Q14.5 37.1562 16.8906 35.375
Q19.2812 33.5938 26.5156 31.9844
L29.5938 31.2969
Q39.1562 29.25 43.1875 25.5156
Q47.2188 21.7812 47.2188 15.0938
Q47.2188 7.46875 41.1875 3.01562
Q35.1562 -1.42188 24.6094 -1.42188
Q20.2188 -1.42188 15.4531 -0.5625
Q10.6875 0.296875 5.42188 2
L5.42188 11.2812
Q10.4062 8.6875 15.2344 7.39062
Q20.0625 6.10938 24.8125 6.10938
Q31.1562 6.10938 34.5625 8.28125
Q37.9844 10.4531 37.9844 14.4062
Q37.9844 18.0625 35.5156 20.0156
Q33.0625 21.9688 24.7031 23.7812
L21.5781 24.5156
Q13.2344 26.2656 9.51562 29.9062
Q5.8125 33.5469 5.8125 39.8906
Q5.8125 47.6094 11.2812 51.7969
Q16.75 56 26.8125 56
Q31.7812 56 36.1719 55.2656
Q40.5781 54.5469 44.2812 53.0781" id="BitstreamVeraSans-Roman-73"/>
     </defs>
     <g transform="translate(230.27578125 382.3946875)scale(0.1 -0.1)">
      <use xlink:href="#BitstreamVeraSans-Roman-54"/>
      <use x="46.333984375" xlink:href="#BitstreamVeraSans-Roman-72"/>
      <use x="87.447265625" xlink:href="#BitstreamVeraSans-Roman-61"/>
      <use x="148.7265625" xlink:href="#BitstreamVeraSans-Roman-69"/>
      <use x="176.509765625" xlink:href="#BitstreamVeraSans-Roman-6e"/>
      <use x="239.888671875" xlink:href="#BitstreamVeraSans-Roman-69"/>
      <use x="267.671875" xlink:href="#BitstreamVeraSans-Roman-6e"/>
      <use x="331.05078125" xlink:href="#BitstreamVeraSans-Roman-67"/>
      <use x="394.52734375" xlink:href="#BitstreamVeraSans-Roman-20"/>
      <use x="426.314453125" xlink:href="#BitstreamVeraSans-Roman-73"/>
      <use x="478.4140625" xlink:href="#BitstreamVeraSans-Roman-65"/>
      <use x="539.9375" xlink:href="#BitstreamVeraSans-Roman-74"/>
      <use x="579.146484375" xlink:href="#BitstreamVeraSans-Roman-20"/>
      <use x="610.93359375" xlink:href="#BitstreamVeraSans-Roman-73"/>
      <use x="663.033203125" xlink:href="#BitstreamVeraSans-Roman-69"/>
      <use x="690.81640625" xlink:href="#BitstreamVeraSans-Roman-7a"/>
      <use x="743.306640625" xlink:href="#BitstreamVeraSans-Roman-65"/>
     </g>
    </g>
   </g>
   <g id="matplotlib.axis_2">
    <g id="ytick_1">
     <g id="line2d_15">
      <defs>
       <path d="
M0 0
L4 0" id="m728421d6d4" style="stroke:#000000;stroke-width:0.5;"/>
      </defs>
      <g>
       <use style="stroke:#000000;stroke-width:0.5;" x="47.0640625" xlink:href="#m728421d6d4" y="356.118125"/>
      </g>
     </g>
     <g id="line2d_16">
      <defs>
       <path d="
M0 0
L-4 0" id="mcb0005524f" style="stroke:#000000;stroke-width:0.5;"/>
      </defs>
      <g>
       <use style="stroke:#000000;stroke-width:0.5;" x="493.4640625" xlink:href="#mcb0005524f" y="356.118125"/>
      </g>
     </g>
     <g id="text_8">
      <!-- 45% -->
      <defs>
       <path d="
M72.7031 32.0781
Q68.4531 32.0781 66.0312 28.4688
Q63.625 24.8594 63.625 18.4062
Q63.625 12.0625 66.0312 8.42188
Q68.4531 4.78125 72.7031 4.78125
Q76.8594 4.78125 79.2656 8.42188
Q81.6875 12.0625 81.6875 18.4062
Q81.6875 24.8125 79.2656 28.4375
Q76.8594 32.0781 72.7031 32.0781
M72.7031 38.2812
Q80.4219 38.2812 84.9531 32.9062
Q89.5 27.5469 89.5 18.4062
Q89.5 9.28125 84.9375 3.92188
Q80.375 -1.42188 72.7031 -1.42188
Q64.8906 -1.42188 60.3438 3.92188
Q55.8125 9.28125 55.8125 18.4062
Q55.8125 27.5938 60.375 32.9375
Q64.9375 38.2812 72.7031 38.2812
M22.3125 68.0156
Q18.1094 68.0156 15.6875 64.375
Q13.2812 60.75 13.2812 54.3906
Q13.2812 47.9531 15.6719 44.3281
Q18.0625 40.7188 22.3125 40.7188
Q26.5625 40.7188 28.9688 44.3281
Q31.3906 47.9531 31.3906 54.3906
Q31.3906 60.6875 28.9531 64.3438
Q26.5156 68.0156 22.3125 68.0156
M66.4062 74.2188
L74.2188 74.2188
L28.6094 -1.42188
L20.7969 -1.42188
z

M22.3125 74.2188
Q30.0312 74.2188 34.6094 68.875
Q39.2031 63.5312 39.2031 54.3906
Q39.2031 45.1719 34.6406 39.8438
Q30.0781 34.5156 22.3125 34.5156
Q14.5469 34.5156 10.0312 39.8594
Q5.51562 45.2188 5.51562 54.3906
Q5.51562 63.4844 10.0469 68.8438
Q14.5938 74.2188 22.3125 74.2188" id="BitstreamVeraSans-Roman-25"/>
       <path d="
M37.7969 64.3125
L12.8906 25.3906
L37.7969 25.3906
z

M35.2031 72.9062
L47.6094 72.9062
L47.6094 25.3906
L58.0156 25.3906
L58.0156 17.1875
L47.6094 17.1875
L47.6094 0
L37.7969 0
L37.7969 17.1875
L4.89062 17.1875
L4.89062 26.7031
z
" id="BitstreamVeraSans-Roman-34"/>
      </defs>
      <g transform="translate(21.878125 358.8775)scale(0.1 -0.1)">
       <use xlink:href="#BitstreamVeraSans-Roman-34"/>
       <use x="63.623046875" xlink:href="#BitstreamVeraSans-Roman-35"/>
       <use x="127.24609375" xlink:href="#BitstreamVeraSans-Roman-25"/>
      </g>
     </g>
    </g>
    <g id="ytick_2">
     <g id="line2d_17">
      <g>
       <use style="stroke:#000000;stroke-width:0.5;" x="47.0640625" xlink:href="#m728421d6d4" y="300.318125"/>
      </g>
     </g>
     <g id="line2d_18">
      <g>
       <use style="stroke:#000000;stroke-width:0.5;" x="493.4640625" xlink:href="#mcb0005524f" y="300.318125"/>
      </g>
     </g>
     <g id="text_9">
      <!-- 50% -->
      <g transform="translate(22.1609375 303.0775)scale(0.1 -0.1)">
       <use xlink:href="#BitstreamVeraSans-Roman-35"/>
       <use x="63.623046875" xlink:href="#BitstreamVeraSans-Roman-30"/>
       <use x="127.24609375" xlink:href="#BitstreamVeraSans-Roman-25"/>
      </g>
     </g>
    </g>
    <g id="ytick_3">
     <g id="line2d_19">
      <g>
       <use style="stroke:#000000;stroke-width:0.5;" x="47.0640625" xlink:href="#m728421d6d4" y="244.518125"/>
      </g>
     </g>
     <g id="line2d_20">
      <g>
       <use style="stroke:#000000;stroke-width:0.5;" x="493.4640625" xlink:href="#mcb0005524f" y="244.518125"/>
      </g>
     </g>
     <g id="text_10">
      <!-- 55% -->
      <g transform="translate(22.1609375 247.2775)scale(0.1 -0.1)">
       <use xlink:href="#BitstreamVeraSans-Roman-35"/>
       <use x="63.623046875" xlink:href="#BitstreamVeraSans-Roman-35"/>
       <use x="127.24609375" xlink:href="#BitstreamVeraSans-Roman-25"/>
      </g>
     </g>
    </g>
    <g id="ytick_4">
     <g id="line2d_21">
      <g>
       <use style="stroke:#000000;stroke-width:0.5;" x="47.0640625" xlink:href="#m728421d6d4" y="188.718125"/>
      </g>
     </g>
     <g id="line2d_22">
      <g>
       <use style="stroke:#000000;stroke-width:0.5;" x="493.4640625" xlink:href="#mcb0005524f" y="188.718125"/>
      </g>
     </g>
     <g id="text_11">
      <!-- 60% -->
      <defs>
       <path d="
M33.0156 40.375
Q26.375 40.375 22.4844 35.8281
Q18.6094 31.2969 18.6094 23.3906
Q18.6094 15.5312 22.4844 10.9531
Q26.375 6.39062 33.0156 6.39062
Q39.6562 6.39062 43.5312 10.9531
Q47.4062 15.5312 47.4062 23.3906
Q47.4062 31.2969 43.5312 35.8281
Q39.6562 40.375 33.0156 40.375
M52.5938 71.2969
L52.5938 62.3125
Q48.875 64.0625 45.0938 64.9844
Q41.3125 65.9219 37.5938 65.9219
Q27.8281 65.9219 22.6719 59.3281
Q17.5312 52.7344 16.7969 39.4062
Q19.6719 43.6562 24.0156 45.9219
Q28.375 48.1875 33.5938 48.1875
Q44.5781 48.1875 50.9531 41.5156
Q57.3281 34.8594 57.3281 23.3906
Q57.3281 12.1562 50.6875 5.35938
Q44.0469 -1.42188 33.0156 -1.42188
Q20.3594 -1.42188 13.6719 8.26562
Q6.98438 17.9688 6.98438 36.375
Q6.98438 53.6562 15.1875 63.9375
Q23.3906 74.2188 37.2031 74.2188
Q40.9219 74.2188 44.7031 73.4844
Q48.4844 72.75 52.5938 71.2969" id="BitstreamVeraSans-Roman-36"/>
      </defs>
      <g transform="translate(22.0875 191.4775)scale(0.1 -0.1)">
       <use xlink:href="#BitstreamVeraSans-Roman-36"/>
       <use x="63.623046875" xlink:href="#BitstreamVeraSans-Roman-30"/>
       <use x="127.24609375" xlink:href="#BitstreamVeraSans-Roman-25"/>
      </g>
     </g>
    </g>
    <g id="ytick_5">
     <g id="line2d_23">
      <g>
       <use style="stroke:#000000;stroke-width:0.5;" x="47.0640625" xlink:href="#m728421d6d4" y="132.918125"/>
      </g>
     </g>
     <g id="line2d_24">
      <g>
       <use style="stroke:#000000;stroke-width:0.5;" x="493.4640625" xlink:href="#mcb0005524f" y="132.918125"/>
      </g>
     </g>
     <g id="text_12">
      <!-- 65% -->
      <g transform="translate(22.0875 135.6775)scale(0.1 -0.1)">
       <use xlink:href="#BitstreamVeraSans-Roman-36"/>
       <use x="63.623046875" xlink:href="#BitstreamVeraSans-Roman-35"/>
       <use x="127.24609375" xlink:href="#BitstreamVeraSans-Roman-25"/>
      </g>
     </g>
    </g>
    <g id="ytick_6">
     <g id="line2d_25">
      <g>
       <use style="stroke:#000000;stroke-width:0.5;" x="47.0640625" xlink:href="#m728421d6d4" y="77.118125"/>
      </g>
     </g>
     <g id="line2d_26">
      <g>
       <use style="stroke:#000000;stroke-width:0.5;" x="493.4640625" xlink:href="#mcb0005524f" y="77.118125"/>
      </g>
     </g>
     <g id="text_13">
      <!-- 70% -->
      <defs>
       <path d="
M8.20312 72.9062
L55.0781 72.9062
L55.0781 68.7031
L28.6094 0
L18.3125 0
L43.2188 64.5938
L8.20312 64.5938
z
" id="BitstreamVeraSans-Roman-37"/>
      </defs>
      <g transform="translate(22.209375 79.8775)scale(0.1 -0.1)">
       <use xlink:href="#BitstreamVeraSans-Roman-37"/>
       <use x="63.623046875" xlink:href="#BitstreamVeraSans-Roman-30"/>
       <use x="127.24609375" xlink:href="#BitstreamVeraSans-Roman-25"/>
      </g>
     </g>
    </g>
    <g id="ytick_7">
     <g id="line2d_27">
      <g>
       <use style="stroke:#000000;stroke-width:0.5;" x="47.0640625" xlink:href="#m728421d6d4" y="21.318125"/>
      </g>
     </g>
     <g id="line2d_28">
      <g>
       <use style="stroke:#000000;stroke-width:0.5;" x="493.4640625" xlink:href="#mcb0005524f" y="21.318125"/>
      </g>
     </g>
     <g id="text_14">
      <!-- 75% -->
      <g transform="translate(22.209375 24.0775)scale(0.1 -0.1)">
       <use xlink:href="#BitstreamVeraSans-Roman-37"/>
       <use x="63.623046875" xlink:href="#BitstreamVeraSans-Roman-35"/>
       <use x="127.24609375" xlink:href="#BitstreamVeraSans-Roman-25"/>
      </g>
     </g>
    </g>
    <g id="text_15">
     <!-- Accuracy -->
     <defs>
      <path d="
M8.5 21.5781
L8.5 54.6875
L17.4844 54.6875
L17.4844 21.9219
Q17.4844 14.1562 20.5 10.2656
Q23.5312 6.39062 29.5938 6.39062
Q36.8594 6.39062 41.0781 11.0312
Q45.3125 15.6719 45.3125 23.6875
L45.3125 54.6875
L54.2969 54.6875
L54.2969 0
L45.3125 0
L45.3125 8.40625
Q42.0469 3.42188 37.7188 1
Q33.4062 -1.42188 27.6875 -1.42188
Q18.2656 -1.42188 13.375 4.4375
Q8.5 10.2969 8.5 21.5781" id="BitstreamVeraSans-Roman-75"/>
      <path d="
M48.7812 52.5938
L48.7812 44.1875
Q44.9688 46.2969 41.1406 47.3438
Q37.3125 48.3906 33.4062 48.3906
Q24.6562 48.3906 19.8125 42.8438
Q14.9844 37.3125 14.9844 27.2969
Q14.9844 17.2812 19.8125 11.7344
Q24.6562 6.20312 33.4062 6.20312
Q37.3125 6.20312 41.1406 7.25
Q44.9688 8.29688 48.7812 10.4062
L48.7812 2.09375
Q45.0156 0.34375 40.9844 -0.53125
Q36.9688 -1.42188 32.4219 -1.42188
Q20.0625 -1.42188 12.7812 6.34375
Q5.51562 14.1094 5.51562 27.2969
Q5.51562 40.6719 12.8594 48.3281
Q20.2188 56 33.0156 56
Q37.1562 56 41.1094 55.1406
Q45.0625 54.2969 48.7812 52.5938" id="BitstreamVeraSans-Roman-63"/>
      <path d="
M34.1875 63.1875
L20.7969 26.9062
L47.6094 26.9062
z

M28.6094 72.9062
L39.7969 72.9062
L67.5781 0
L57.3281 0
L50.6875 18.7031
L17.8281 18.7031
L11.1875 0
L0.78125 0
z
" id="BitstreamVeraSans-Roman-41"/>
      <path d="
M32.1719 -5.07812
Q28.375 -14.8438 24.75 -17.8125
Q21.1406 -20.7969 15.0938 -20.7969
L7.90625 -20.7969
L7.90625 -13.2812
L13.1875 -13.2812
Q16.8906 -13.2812 18.9375 -11.5156
Q21 -9.76562 23.4844 -3.21875
L25.0938 0.875
L2.98438 54.6875
L12.5 54.6875
L29.5938 11.9219
L46.6875 54.6875
L56.2031 54.6875
z
" id="BitstreamVeraSans-Roman-79"/>
     </defs>
     <g transform="translate(14.7984375 211.35796875)rotate(-90.0)scale(0.1 -0.1)">
      <use xlink:href="#BitstreamVeraSans-Roman-41"/>
      <use x="66.658203125" xlink:href="#BitstreamVeraSans-Roman-63"/>
      <use x="121.638671875" xlink:href="#BitstreamVeraSans-Roman-63"/>
      <use x="176.619140625" xlink:href="#BitstreamVeraSans-Roman-75"/>
      <use x="239.998046875" xlink:href="#BitstreamVeraSans-Roman-72"/>
      <use x="281.111328125" xlink:href="#BitstreamVeraSans-Roman-61"/>
      <use x="342.390625" xlink:href="#BitstreamVeraSans-Roman-63"/>
      <use x="397.37109375" xlink:href="#BitstreamVeraSans-Roman-79"/>
     </g>
    </g>
   </g>
   <g id="text_16">
    <!-- Learning curves for different classifiers on illness.csv -->
    <defs>
     <path d="
M9.8125 72.9062
L19.6719 72.9062
L19.6719 8.29688
L55.1719 8.29688
L55.1719 0
L9.8125 0
z
" id="BitstreamVeraSans-Roman-4c"/>
     <path d="
M30.6094 48.3906
Q23.3906 48.3906 19.1875 42.75
Q14.9844 37.1094 14.9844 27.2969
Q14.9844 17.4844 19.1562 11.8438
Q23.3438 6.20312 30.6094 6.20312
Q37.7969 6.20312 41.9844 11.8594
Q46.1875 17.5312 46.1875 27.2969
Q46.1875 37.0156 41.9844 42.7031
Q37.7969 48.3906 30.6094 48.3906
M30.6094 56
Q42.3281 56 49.0156 48.375
Q55.7188 40.7656 55.7188 27.2969
Q55.7188 13.875 49.0156 6.21875
Q42.3281 -1.42188 30.6094 -1.42188
Q18.8438 -1.42188 12.1719 6.21875
Q5.51562 13.875 5.51562 27.2969
Q5.51562 40.7656 12.1719 48.375
Q18.8438 56 30.6094 56" id="BitstreamVeraSans-Roman-6f"/>
     <path d="
M9.42188 75.9844
L18.4062 75.9844
L18.4062 0
L9.42188 0
z
" id="BitstreamVeraSans-Roman-6c"/>
     <path d="
M10.6875 12.4062
L21 12.4062
L21 0
L10.6875 0
z
" id="BitstreamVeraSans-Roman-2e"/>
     <path d="
M2.98438 54.6875
L12.5 54.6875
L29.5938 8.79688
L46.6875 54.6875
L56.2031 54.6875
L35.6875 0
L23.4844 0
z
" id="BitstreamVeraSans-Roman-76"/>
     <path d="
M45.4062 46.3906
L45.4062 75.9844
L54.3906 75.9844
L54.3906 0
L45.4062 0
L45.4062 8.20312
Q42.5781 3.32812 38.25 0.953125
Q33.9375 -1.42188 27.875 -1.42188
Q17.9688 -1.42188 11.7344 6.48438
Q5.51562 14.4062 5.51562 27.2969
Q5.51562 40.1875 11.7344 48.0938
Q17.9688 56 27.875 56
Q33.9375 56 38.25 53.625
Q42.5781 51.2656 45.4062 46.3906
M14.7969 27.2969
Q14.7969 17.3906 18.875 11.75
Q22.9531 6.10938 30.0781 6.10938
Q37.2031 6.10938 41.2969 11.75
Q45.4062 17.3906 45.4062 27.2969
Q45.4062 37.2031 41.2969 42.8438
Q37.2031 48.4844 30.0781 48.4844
Q22.9531 48.4844 18.875 42.8438
Q14.7969 37.2031 14.7969 27.2969" id="BitstreamVeraSans-Roman-64"/>
     <path d="
M37.1094 75.9844
L37.1094 68.5
L28.5156 68.5
Q23.6875 68.5 21.7969 66.5469
Q19.9219 64.5938 19.9219 59.5156
L19.9219 54.6875
L34.7188 54.6875
L34.7188 47.7031
L19.9219 47.7031
L19.9219 0
L10.8906 0
L10.8906 47.7031
L2.29688 47.7031
L2.29688 54.6875
L10.8906 54.6875
L10.8906 58.5
Q10.8906 67.625 15.1406 71.7969
Q19.3906 75.9844 28.6094 75.9844
z
" id="BitstreamVeraSans-Roman-66"/>
    </defs>
    <g transform="translate(111.4684375 16.318125)scale(0.12 -0.12)">
     <use xlink:href="#BitstreamVeraSans-Roman-4c"/>
     <use x="53.962890625" xlink:href="#BitstreamVeraSans-Roman-65"/>
     <use x="115.486328125" xlink:href="#BitstreamVeraSans-Roman-61"/>
     <use x="176.765625" xlink:href="#BitstreamVeraSans-Roman-72"/>
     <use x="216.12890625" xlink:href="#BitstreamVeraSans-Roman-6e"/>
     <use x="279.5078125" xlink:href="#BitstreamVeraSans-Roman-69"/>
     <use x="307.291015625" xlink:href="#BitstreamVeraSans-Roman-6e"/>
     <use x="370.669921875" xlink:href="#BitstreamVeraSans-Roman-67"/>
     <use x="434.146484375" xlink:href="#BitstreamVeraSans-Roman-20"/>
     <use x="465.93359375" xlink:href="#BitstreamVeraSans-Roman-63"/>
     <use x="520.9140625" xlink:href="#BitstreamVeraSans-Roman-75"/>
     <use x="584.29296875" xlink:href="#BitstreamVeraSans-Roman-72"/>
     <use x="625.40625" xlink:href="#BitstreamVeraSans-Roman-76"/>
     <use x="684.5859375" xlink:href="#BitstreamVeraSans-Roman-65"/>
     <use x="746.109375" xlink:href="#BitstreamVeraSans-Roman-73"/>
     <use x="798.208984375" xlink:href="#BitstreamVeraSans-Roman-20"/>
     <use x="829.99609375" xlink:href="#BitstreamVeraSans-Roman-66"/>
     <use x="865.201171875" xlink:href="#BitstreamVeraSans-Roman-6f"/>
     <use x="926.3828125" xlink:href="#BitstreamVeraSans-Roman-72"/>
     <use x="967.49609375" xlink:href="#BitstreamVeraSans-Roman-20"/>
     <use x="999.283203125" xlink:href="#BitstreamVeraSans-Roman-64"/>
     <use x="1062.75976562" xlink:href="#BitstreamVeraSans-Roman-69"/>
     <use x="1090.54296875" xlink:href="#BitstreamVeraSans-Roman-66"/>
     <use x="1125.74804688" xlink:href="#BitstreamVeraSans-Roman-66"/>
     <use x="1160.953125" xlink:href="#BitstreamVeraSans-Roman-65"/>
     <use x="1222.4765625" xlink:href="#BitstreamVeraSans-Roman-72"/>
     <use x="1261.33984375" xlink:href="#BitstreamVeraSans-Roman-65"/>
     <use x="1322.86328125" xlink:href="#BitstreamVeraSans-Roman-6e"/>
     <use x="1386.2421875" xlink:href="#BitstreamVeraSans-Roman-74"/>
     <use x="1425.45117188" xlink:href="#BitstreamVeraSans-Roman-20"/>
     <use x="1457.23828125" xlink:href="#BitstreamVeraSans-Roman-63"/>
     <use x="1512.21875" xlink:href="#BitstreamVeraSans-Roman-6c"/>
     <use x="1540.00195312" xlink:href="#BitstreamVeraSans-Roman-61"/>
     <use x="1601.28125" xlink:href="#BitstreamVeraSans-Roman-73"/>
     <use x="1653.38085938" xlink:href="#BitstreamVeraSans-Roman-73"/>
     <use x="1705.48046875" xlink:href="#BitstreamVeraSans-Roman-69"/>
     <use x="1733.26367188" xlink:href="#BitstreamVeraSans-Roman-66"/>
     <use x="1768.46875" xlink:href="#BitstreamVeraSans-Roman-69"/>
     <use x="1796.25195312" xlink:href="#BitstreamVeraSans-Roman-65"/>
     <use x="1857.77539062" xlink:href="#BitstreamVeraSans-Roman-72"/>
     <use x="1898.88867188" xlink:href="#BitstreamVeraSans-Roman-73"/>
     <use x="1950.98828125" xlink:href="#BitstreamVeraSans-Roman-20"/>
     <use x="1982.77539062" xlink:href="#BitstreamVeraSans-Roman-6f"/>
     <use x="2043.95703125" xlink:href="#BitstreamVeraSans-Roman-6e"/>
     <use x="2107.3359375" xlink:href="#BitstreamVeraSans-Roman-20"/>
     <use x="2139.12304688" xlink:href="#BitstreamVeraSans-Roman-69"/>
     <use x="2166.90625" xlink:href="#BitstreamVeraSans-Roman-6c"/>
     <use x="2194.68945312" xlink:href="#BitstreamVeraSans-Roman-6c"/>
     <use x="2222.47265625" xlink:href="#BitstreamVeraSans-Roman-6e"/>
     <use x="2285.8515625" xlink:href="#BitstreamVeraSans-Roman-65"/>
     <use x="2347.375" xlink:href="#BitstreamVeraSans-Roman-73"/>
     <use x="2399.47460938" xlink:href="#BitstreamVeraSans-Roman-73"/>
     <use x="2451.57421875" xlink:href="#BitstreamVeraSans-Roman-2e"/>
     <use x="2483.36132812" xlink:href="#BitstreamVeraSans-Roman-63"/>
     <use x="2538.34179688" xlink:href="#BitstreamVeraSans-Roman-73"/>
     <use x="2590.44140625" xlink:href="#BitstreamVeraSans-Roman-76"/>
    </g>
   </g>
   <g id="legend_1">
    <g id="patch_7">
     <path d="
M52.5641 350.618
L296.56 350.618
L296.56 315.026
L52.5641 315.026
z
" style="fill:#ffffff;stroke:#000000;stroke-linejoin:miter;"/>
    </g>
    <g id="line2d_29">
     <path d="
M60.2641 323.935
L75.6641 323.935" style="fill:none;stroke:#0000ff;stroke-linecap:square;"/>
    </g>
    <g id="line2d_30"/>
    <g id="text_17">
     <!-- k-Nearest Neighbours -->
     <defs>
      <path d="
M54.8906 33.0156
L54.8906 0
L45.9062 0
L45.9062 32.7188
Q45.9062 40.4844 42.875 44.3281
Q39.8438 48.1875 33.7969 48.1875
Q26.5156 48.1875 22.3125 43.5469
Q18.1094 38.9219 18.1094 30.9062
L18.1094 0
L9.07812 0
L9.07812 75.9844
L18.1094 75.9844
L18.1094 46.1875
Q21.3438 51.125 25.7031 53.5625
Q30.0781 56 35.7969 56
Q45.2188 56 50.0469 50.1719
Q54.8906 44.3438 54.8906 33.0156" id="BitstreamVeraSans-Roman-68"/>
      <path d="
M9.8125 72.9062
L23.0938 72.9062
L55.4219 11.9219
L55.4219 72.9062
L64.9844 72.9062
L64.9844 0
L51.7031 0
L19.3906 60.9844
L19.3906 0
L9.8125 0
z
" id="BitstreamVeraSans-Roman-4e"/>
      <path d="
M48.6875 27.2969
Q48.6875 37.2031 44.6094 42.8438
Q40.5312 48.4844 33.4062 48.4844
Q26.2656 48.4844 22.1875 42.8438
Q18.1094 37.2031 18.1094 27.2969
Q18.1094 17.3906 22.1875 11.75
Q26.2656 6.10938 33.4062 6.10938
Q40.5312 6.10938 44.6094 11.75
Q48.6875 17.3906 48.6875 27.2969
M18.1094 46.3906
Q20.9531 51.2656 25.2656 53.625
Q29.5938 56 35.5938 56
Q45.5625 56 51.7812 48.0938
Q58.0156 40.1875 58.0156 27.2969
Q58.0156 14.4062 51.7812 6.48438
Q45.5625 -1.42188 35.5938 -1.42188
Q29.5938 -1.42188 25.2656 0.953125
Q20.9531 3.32812 18.1094 8.20312
L18.1094 0
L9.07812 0
L9.07812 75.9844
L18.1094 75.9844
z
" id="BitstreamVeraSans-Roman-62"/>
      <path d="
M4.89062 31.3906
L31.2031 31.3906
L31.2031 23.3906
L4.89062 23.3906
z
" id="BitstreamVeraSans-Roman-2d"/>
      <path d="
M9.07812 75.9844
L18.1094 75.9844
L18.1094 31.1094
L44.9219 54.6875
L56.3906 54.6875
L27.3906 29.1094
L57.625 0
L45.9062 0
L18.1094 26.7031
L18.1094 0
L9.07812 0
z
" id="BitstreamVeraSans-Roman-6b"/>
     </defs>
     <g transform="translate(87.7640625 327.78453125)scale(0.11 -0.11)">
      <use xlink:href="#BitstreamVeraSans-Roman-6b"/>
      <use x="57.91015625" xlink:href="#BitstreamVeraSans-Roman-2d"/>
      <use x="93.994140625" xlink:href="#BitstreamVeraSans-Roman-4e"/>
      <use x="168.798828125" xlink:href="#BitstreamVeraSans-Roman-65"/>
      <use x="230.322265625" xlink:href="#BitstreamVeraSans-Roman-61"/>
      <use x="291.6015625" xlink:href="#BitstreamVeraSans-Roman-72"/>
      <use x="330.46484375" xlink:href="#BitstreamVeraSans-Roman-65"/>
      <use x="391.98828125" xlink:href="#BitstreamVeraSans-Roman-73"/>
      <use x="444.087890625" xlink:href="#BitstreamVeraSans-Roman-74"/>
      <use x="483.296875" xlink:href="#BitstreamVeraSans-Roman-20"/>
      <use x="515.083984375" xlink:href="#BitstreamVeraSans-Roman-4e"/>
      <use x="589.888671875" xlink:href="#BitstreamVeraSans-Roman-65"/>
      <use x="651.412109375" xlink:href="#BitstreamVeraSans-Roman-69"/>
      <use x="679.1953125" xlink:href="#BitstreamVeraSans-Roman-67"/>
      <use x="742.671875" xlink:href="#BitstreamVeraSans-Roman-68"/>
      <use x="806.05078125" xlink:href="#BitstreamVeraSans-Roman-62"/>
      <use x="869.52734375" xlink:href="#BitstreamVeraSans-Roman-6f"/>
      <use x="930.708984375" xlink:href="#BitstreamVeraSans-Roman-75"/>
      <use x="994.087890625" xlink:href="#BitstreamVeraSans-Roman-72"/>
      <use x="1035.20117188" xlink:href="#BitstreamVeraSans-Roman-73"/>
     </g>
    </g>
    <g id="line2d_31">
     <path d="
M60.2641 340.08
L75.6641 340.08" style="fill:none;stroke:#008000;stroke-dasharray:6.000000,6.000000;stroke-dashoffset:0.0;"/>
    </g>
    <g id="line2d_32"/>
    <g id="text_18">
     <!-- Linear Support Vector Machine (SVM) -->
     <defs>
      <path d="
M9.8125 72.9062
L24.5156 72.9062
L43.1094 23.2969
L61.8125 72.9062
L76.5156 72.9062
L76.5156 0
L66.8906 0
L66.8906 64.0156
L48.0938 14.0156
L38.1875 14.0156
L19.3906 64.0156
L19.3906 0
L9.8125 0
z
" id="BitstreamVeraSans-Roman-4d"/>
      <path d="
M8.01562 75.875
L15.8281 75.875
Q23.1406 64.3594 26.7812 53.3125
Q30.4219 42.2812 30.4219 31.3906
Q30.4219 20.4531 26.7812 9.375
Q23.1406 -1.70312 15.8281 -13.1875
L8.01562 -13.1875
Q14.5 -2 17.7031 9.0625
Q20.9062 20.125 20.9062 31.3906
Q20.9062 42.6719 17.7031 53.6562
Q14.5 64.6562 8.01562 75.875" id="BitstreamVeraSans-Roman-29"/>
      <path d="
M31 75.875
Q24.4688 64.6562 21.2812 53.6562
Q18.1094 42.6719 18.1094 31.3906
Q18.1094 20.125 21.3125 9.0625
Q24.5156 -2 31 -13.1875
L23.1875 -13.1875
Q15.875 -1.70312 12.2344 9.375
Q8.59375 20.4531 8.59375 31.3906
Q8.59375 42.2812 12.2031 53.3125
Q15.8281 64.3594 23.1875 75.875
z
" id="BitstreamVeraSans-Roman-28"/>
      <path d="
M53.5156 70.5156
L53.5156 60.8906
Q47.9062 63.5781 42.9219 64.8906
Q37.9375 66.2188 33.2969 66.2188
Q25.25 66.2188 20.875 63.0938
Q16.5 59.9688 16.5 54.2031
Q16.5 49.3594 19.4062 46.8906
Q22.3125 44.4375 30.4219 42.9219
L36.375 41.7031
Q47.4062 39.5938 52.6562 34.2969
Q57.9062 29 57.9062 20.125
Q57.9062 9.51562 50.7969 4.04688
Q43.7031 -1.42188 29.9844 -1.42188
Q24.8125 -1.42188 18.9688 -0.25
Q13.1406 0.921875 6.89062 3.21875
L6.89062 13.375
Q12.8906 10.0156 18.6562 8.29688
Q24.4219 6.59375 29.9844 6.59375
Q38.4219 6.59375 43.0156 9.90625
Q47.6094 13.2344 47.6094 19.3906
Q47.6094 24.75 44.3125 27.7812
Q41.0156 30.8125 33.5 32.3281
L27.4844 33.5
Q16.4531 35.6875 11.5156 40.375
Q6.59375 45.0625 6.59375 53.4219
Q6.59375 63.0938 13.4062 68.6562
Q20.2188 74.2188 32.1719 74.2188
Q37.3125 74.2188 42.625 73.2812
Q47.9531 72.3594 53.5156 70.5156" id="BitstreamVeraSans-Roman-53"/>
      <path d="
M28.6094 0
L0.78125 72.9062
L11.0781 72.9062
L34.1875 11.5312
L57.3281 72.9062
L67.5781 72.9062
L39.7969 0
z
" id="BitstreamVeraSans-Roman-56"/>
      <path d="
M18.1094 8.20312
L18.1094 -20.7969
L9.07812 -20.7969
L9.07812 54.6875
L18.1094 54.6875
L18.1094 46.3906
Q20.9531 51.2656 25.2656 53.625
Q29.5938 56 35.5938 56
Q45.5625 56 51.7812 48.0938
Q58.0156 40.1875 58.0156 27.2969
Q58.0156 14.4062 51.7812 6.48438
Q45.5625 -1.42188 35.5938 -1.42188
Q29.5938 -1.42188 25.2656 0.953125
Q20.9531 3.32812 18.1094 8.20312
M48.6875 27.2969
Q48.6875 37.2031 44.6094 42.8438
Q40.5312 48.4844 33.4062 48.4844
Q26.2656 48.4844 22.1875 42.8438
Q18.1094 37.2031 18.1094 27.2969
Q18.1094 17.3906 22.1875 11.75
Q26.2656 6.10938 33.4062 6.10938
Q40.5312 6.10938 44.6094 11.75
Q48.6875 17.3906 48.6875 27.2969" id="BitstreamVeraSans-Roman-70"/>
     </defs>
     <g transform="translate(87.7640625 343.93046875)scale(0.11 -0.11)">
      <use xlink:href="#BitstreamVeraSans-Roman-4c"/>
      <use x="55.712890625" xlink:href="#BitstreamVeraSans-Roman-69"/>
      <use x="83.49609375" xlink:href="#BitstreamVeraSans-Roman-6e"/>
      <use x="146.875" xlink:href="#BitstreamVeraSans-Roman-65"/>
      <use x="208.3984375" xlink:href="#BitstreamVeraSans-Roman-61"/>
      <use x="269.677734375" xlink:href="#BitstreamVeraSans-Roman-72"/>
      <use x="310.791015625" xlink:href="#BitstreamVeraSans-Roman-20"/>
      <use x="342.578125" xlink:href="#BitstreamVeraSans-Roman-53"/>
      <use x="406.0546875" xlink:href="#BitstreamVeraSans-Roman-75"/>
      <use x="469.43359375" xlink:href="#BitstreamVeraSans-Roman-70"/>
      <use x="532.91015625" xlink:href="#BitstreamVeraSans-Roman-70"/>
      <use x="596.38671875" xlink:href="#BitstreamVeraSans-Roman-6f"/>
      <use x="657.568359375" xlink:href="#BitstreamVeraSans-Roman-72"/>
      <use x="698.681640625" xlink:href="#BitstreamVeraSans-Roman-74"/>
      <use x="737.890625" xlink:href="#BitstreamVeraSans-Roman-20"/>
      <use x="769.677734375" xlink:href="#BitstreamVeraSans-Roman-56"/>
      <use x="830.3359375" xlink:href="#BitstreamVeraSans-Roman-65"/>
      <use x="891.859375" xlink:href="#BitstreamVeraSans-Roman-63"/>
      <use x="946.83984375" xlink:href="#BitstreamVeraSans-Roman-74"/>
      <use x="986.048828125" xlink:href="#BitstreamVeraSans-Roman-6f"/>
      <use x="1047.23046875" xlink:href="#BitstreamVeraSans-Roman-72"/>
      <use x="1088.34375" xlink:href="#BitstreamVeraSans-Roman-20"/>
      <use x="1120.13085938" xlink:href="#BitstreamVeraSans-Roman-4d"/>
      <use x="1206.41015625" xlink:href="#BitstreamVeraSans-Roman-61"/>
      <use x="1267.68945312" xlink:href="#BitstreamVeraSans-Roman-63"/>
      <use x="1322.66992188" xlink:href="#BitstreamVeraSans-Roman-68"/>
      <use x="1386.04882812" xlink:href="#BitstreamVeraSans-Roman-69"/>
      <use x="1413.83203125" xlink:href="#BitstreamVeraSans-Roman-6e"/>
      <use x="1477.2109375" xlink:href="#BitstreamVeraSans-Roman-65"/>
      <use x="1538.734375" xlink:href="#BitstreamVeraSans-Roman-20"/>
      <use x="1570.52148438" xlink:href="#BitstreamVeraSans-Roman-28"/>
      <use x="1609.53515625" xlink:href="#BitstreamVeraSans-Roman-53"/>
      <use x="1673.01171875" xlink:href="#BitstreamVeraSans-Roman-56"/>
      <use x="1741.41992188" xlink:href="#BitstreamVeraSans-Roman-4d"/>
      <use x="1827.69921875" xlink:href="#BitstreamVeraSans-Roman-29"/>
     </g>
    </g>
   </g>
  </g>
 </g>
 <defs>
  <clipPath id="p81a6b23c2c">
   <rect height="334.8" width="446.4" x="47.0640625" y="21.318125"/>
  </clipPath>
 </defs>
</svg>
